<?xml version="1.0" standalone="no"?>
<!DOCTYPE svg PUBLIC "-//W3C//DTD SVG 20010904//EN"
 "http://www.w3.org/TR/2001/REC-SVG-20010904/DTD/svg10.dtd">
<svg version="1.0" xmlns="http://www.w3.org/2000/svg"
 width="260.000000pt" height="260.000000pt" viewBox="0 0 260.000000 260.000000"
 preserveAspectRatio="xMidYMid meet">
<metadata>
Created by potrace 1.11, written by Peter Selinger 2001-2013
</metadata>
<g transform="translate(0.000000,260.000000) scale(0.100000,-0.100000)"
fill="#000000" stroke="none">
<path d="M1203 2583 c-15 -7 -33 -20 -38 -27 -14 -18 -232 -187 -275 -213 -70
-43 -149 -68 -240 -79 -25 -2 -72 -9 -105 -14 -33 -5 -75 -10 -94 -10 -44 0
-96 -35 -116 -77 -16 -32 -20 -59 -30 -169 -2 -34 -14 -110 -26 -170 -23 -125
-43 -165 -157 -320 -109 -149 -121 -173 -116 -240 2 -30 11 -69 20 -87 25 -47
153 -238 180 -267 31 -34 102 -172 109 -212 7 -37 14 -86 20 -138 18 -164 34
-194 121 -239 42 -20 78 -25 274 -36 58 -4 122 -8 144 -10 40 -4 161 -68 212
-112 59 -49 71 -59 143 -107 63 -43 80 -50 121 -50 50 1 101 28 120 64 6 11
37 38 69 59 32 22 65 46 72 53 64 62 172 136 205 142 22 4 66 16 99 26 33 10
81 21 106 24 67 9 212 42 235 54 43 23 59 52 62 116 2 65 9 164 16 261 10 125
52 217 191 418 71 102 74 110 72 159 -1 50 -4 55 -62 113 -205 208 -254 304
-311 615 -12 63 -12 62 -13 88 0 13 -17 39 -37 57 -36 35 -73 46 -128 42 -17
-2 -73 3 -125 10 -53 7 -120 15 -149 18 -106 13 -292 114 -423 230 -51 45 -96
54 -146 28z m-39 -210 c-1 -27 -2 -55 -3 -63 -1 -19 -47 -47 -89 -55 -17 -3
-44 -10 -59 -16 -35 -13 -34 -13 -44 3 -14 22 -10 33 19 50 15 9 58 42 96 72
37 31 71 56 75 56 3 0 6 -21 5 -47z m367 -70 c21 -14 36 -30 33 -35 -10 -16
-164 6 -176 25 -4 7 -8 34 -8 60 l0 48 56 -36 c30 -20 73 -47 95 -62z m357
-97 c28 -2 55 -6 59 -9 5 -6 -71 -87 -82 -87 -22 0 -145 86 -145 102 0 5 24 6
58 3 31 -4 81 -8 110 -9z m-1068 -30 c0 -14 -110 -96 -130 -96 -15 0 -81 57
-78 67 2 4 8 8 13 9 6 2 26 5 45 9 19 3 51 10 70 14 54 13 80 12 80 -3z m623
-107 c131 -23 247 -74 247 -108 0 -13 -157 -177 -296 -309 -8 -8 -52 -15 -117
-18 -88 -4 -106 -2 -123 13 -23 22 -109 92 -221 182 -110 88 -110 97 7 159
161 87 327 113 503 81z m701 -101 c29 -144 29 -148 18 -148 -13 0 -81 72 -99
103 -20 35 -15 59 20 99 18 20 34 37 37 38 3 0 14 -42 24 -92z m-1638 -41 c15
-26 4 -51 -49 -124 -39 -55 -47 -59 -76 -43 -16 8 -17 16 -9 62 4 29 11 84 14
122 2 38 7 73 10 78 7 10 94 -65 110 -95z m1489 -272 c25 -50 47 -101 50 -114
2 -13 9 -39 15 -56 14 -43 18 -162 8 -238 -4 -34 -10 -79 -13 -99 -13 -105
-57 -201 -96 -211 -21 -6 -46 16 -182 154 -156 158 -158 160 -156 202 1 23 -1
71 -5 107 -6 59 -5 67 16 90 13 14 52 58 86 98 84 98 122 141 155 175 l28 30
24 -23 c14 -13 45 -64 70 -115z m-1171 -83 c85 -85 157 -164 160 -175 2 -12 1
-63 -3 -114 -7 -83 -11 -95 -42 -135 -18 -23 -36 -45 -39 -48 -3 -3 -37 -43
-75 -90 -106 -130 -133 -154 -151 -139 -24 20 -78 134 -109 229 -49 148 -42
344 17 495 26 66 67 137 78 133 5 -2 79 -72 164 -156z m1467 50 c18 -26 48
-63 66 -82 17 -19 30 -36 28 -38 -6 -6 -83 -4 -104 3 -21 6 -44 57 -55 118
-13 72 13 71 65 -1z m-1934 -27 c9 -25 -18 -136 -39 -157 -14 -14 -33 -18 -83
-18 -36 0 -65 3 -65 6 0 3 30 46 67 95 51 68 72 89 90 89 13 0 26 -7 30 -15z
m1058 -208 c72 -122 69 -117 56 -117 -6 0 -28 -10 -49 -23 -20 -13 -62 -38
-94 -55 l-56 -33 -61 101 c-34 56 -61 104 -61 108 0 8 189 122 200 121 3 0 32
-46 65 -102z m1017 -115 c12 -12 -114 -201 -134 -202 -27 0 -40 35 -33 93 8
68 24 107 47 116 23 8 109 4 120 -7z m-2101 -103 c9 -13 20 -35 23 -49 3 -14
10 -42 15 -63 8 -33 6 -42 -10 -58 -10 -10 -25 -19 -31 -19 -7 0 -37 32 -67
70 -30 38 -64 79 -77 91 -31 29 -30 37 7 47 59 15 121 7 140 -19z m1174 -214
c33 -28 89 -73 125 -100 88 -65 140 -116 140 -136 0 -29 -126 -106 -233 -143
-153 -53 -388 -38 -538 33 -71 33 -119 66 -119 82 0 9 102 109 162 159 16 13
60 54 97 91 l67 67 93 0 c51 0 95 3 97 5 12 12 54 -10 109 -58z m731 -52 c5
-10 9 -36 9 -58 -2 -42 -15 -158 -18 -162 -7 -7 -108 101 -104 111 13 33 79
126 90 126 7 0 17 -8 23 -17z m-1752 -96 c53 -64 67 -96 54 -121 -13 -24 -98
-116 -107 -116 -4 0 -8 15 -9 33 -1 18 -4 44 -7 57 -3 13 -7 42 -11 64 -3 22
-9 47 -14 56 -9 17 26 69 47 70 6 0 28 -19 47 -43z m1538 -254 c31 -33 64 -82
56 -83 -51 -7 -93 -15 -153 -29 -41 -10 -78 -15 -84 -12 -11 7 1 65 17 86 22
30 86 75 105 75 13 0 38 -16 59 -37z m-1146 -115 c4 -6 -3 -19 -15 -30 -20
-16 -36 -17 -139 -12 -64 3 -118 7 -119 8 -7 7 99 135 114 138 17 4 145 -80
159 -104z m754 -51 c11 -9 20 -25 20 -35 0 -18 -145 -152 -165 -152 -7 0 -11
30 -10 87 l0 87 55 17 c64 19 74 19 100 -4z m-442 -13 c58 -12 72 -35 72 -124
0 -52 -4 -80 -11 -80 -6 0 -55 32 -108 71 -77 57 -96 76 -97 98 -1 14 0 29 3
34 5 9 98 9 141 1z"/>
</g>
</svg>
